# Blender v2.69 (sub 0) OBJ File: ''
# www.blender.org
mtllib colorcube.mtl
o Cube
v 1.000000 -1.000000 -1.000000
v 1.000000 -1.000000 1.000000
v -1.000000 -1.000000 1.000000
v -1.000000 -1.000000 -1.000000
v 1.000000 1.000000 -0.999999
v 0.999999 1.000000 1.000001
v -1.000000 1.000000 1.000000
v -1.000000 1.000000 -1.000000
vn 0.000000 -1.000000 0.000000
vn 1.000000 -0.000000 0.000000
vn 0.000000 -0.000000 1.000000
vn -1.000000 -0.000000 -0.000000
vn 0.000000 0.000000 -1.000000
vn 1.000000 0.000000 0.000001
vn 0.000000 1.000000 0.000000
usemtl Material
s off
f 1//1 2//1 4//1
f 1//2 5//2 2//2
f 2//3 6//3 3//3
f 3//4 7//4 4//4
f 5//5 1//5 8//5
f 2//1 3//1 4//1
f 5//6 6//6 2//6
f 6//3 7//3 3//3
f 7//4 8//4 4//4
f 1//5 4//5 8//5
usemtl Material.001
f 5//7 8//7 6//7
f 8//7 7//7 6//7
